# xmcd
#
# Track frame offsets: 
#        182
#        17500
#        33787
#        57905
#        67952
#        86022
#        109942
#        129900
#        167577
#        207787
#        251222
#
# Disc length: 3954 seconds
#
# Revision: 6
# Processed by: cddbd v1.5.2PL0 Copyright (c) Steve Scherf et al.
# Submitted via: ExactAudioCopyFreeDBPlugin 1.0
#
DISCID=890f700b
DTITLE=Marvin Gaye - In Concert
DYEAR=1993
DGENRE=Soul
TTITLE0=I Heard It Through The Grapevine
TTITLE1=Come Get To This
TTITLE2=Let's Get It On
TTITLE3=God Is Love
TTITLE4=What's Going On
TTITLE5=Inner City Blues
TTITLE6=Joy
TTITLE7=Medley: Ain't Nothin' Like The Real Thing, Heaven Must Have Se
TTITLE7=nt You, Let's Be Friends, If This World Were Mine
TTITLE8=Rockin' After Midnight
TTITLE9=Distant Lover
TTITLE10=Sexual Healing
EXTD=MEDLEY:\n1)  AIN'T NOTHING LIKE THE REAL THING\n2)  HEAVEN MUST H
EXTD=AVE SENT YOU\n3)  LET'S BE FRIENDS\n4)  IF THIS WORLD WERE MINE Y
EXTD=EAR: 1993 ID3G: 42
EXTT0=
EXTT1=
EXTT2=
EXTT3=
EXTT4=
EXTT5=
EXTT6=
EXTT7=
EXTT8=
EXTT9=
EXTT10=
PLAYORDER=
